<svg xmlns="http://www.w3.org/2000/svg" viewBox="0 0 445.66 170.6"><defs><style>.cls-1{fill:#ec034f;stroke:#000;stroke-miterlimit:10;stroke-width:5px;}.cls-2{fill:#fff;}</style></defs><title>logo_zou</title><g id="Layer_2" data-name="Layer 2"><g id="LOGO_DESIGN" data-name="LOGO DESIGN"><path id="outside_lips" data-name="outside lips" class="cls-1" d="M108.3,102.5c-11,2,5,19,13,26s17,10,21,14,15,25,69,25c79,0,105-59,98-65,8-1,12-26-1-47s-49-51-62-51-17,8-29,8c-9,0-20-10-27-10s-67,29-80,63C107.3,75.5,98.3,96.5,108.3,102.5Z"/><path class="cls-2" d="M177.54,44.69s6.53,7.22,7.22,10.73c.48-5-3.69-15.07-3.69-15.07Z"/><path class="cls-2" d="M186.83,34.67a22.2,22.2,0,0,1,4.88,8.53c1.6-5.6-1.88-10.88-1.88-10.88Z"/><path class="cls-2" d="M227.8,18c3.5,1,2,3,6,10,10-3,11.76-21.29,8-18C233.8,17,224.3,17,227.8,18Z"/><path class="cls-2" d="M261.8,40s-4.7,4-7,6c5.75-1,11.5-6,11.5-6Z"/><path class="cls-2" d="M220.3,116.5s4,4,2,11a6.18,6.18,0,0,0,7-1c1-5-2-14-2-14A7.94,7.94,0,0,1,220.3,116.5Z"/><path class="cls-2" d="M208.3,128.5s4,0,5-3v-8s-2-5-6,1Z"/><path class="cls-2" d="M230.3,112.5s2,6,1,11c3,2,6,3,8,2s5-3,6-6c1-4-6-11-6-11S235.3,113.5,230.3,112.5Z"/><path class="cls-2" d="M249.3,101.5s9,1,10,9h3s-1-10-9-11Z"/><path class="cls-2" d="M176.16,116.89s-1.44-8.94,6-12l-.8-2.89s-9.37,3.63-8.21,11.61Z"/><path d="M217.8,92c2.5.5,4-4,6-4s4-3,6-3a2,2,0,0,1-2-2c0-2,3-5,3-5a8.55,8.55,0,0,0-6.5,5.5c-1,2-4,4-5,4-3,0,0-5-2-5s-3,6-7,6-2-2-2-3-3,3-5,2-1-3-2-4c-.71-.71-5,2-5,3s3-1,4,0-1,2,1,3,6,0,7,0,3,1,4,1,3-2,3-1S215.3,91.5,217.8,92Z"/><path d="M282.8,95s5,1,6,4,2,4.8,3,5c2.5.5,3.5-.5,5.5-.5s3-2,6-2a12.13,12.13,0,0,1,5,1s5.5-1.5,5-3-7-2-10-1-8,5-10,4S291.3,96.5,282.8,95Z"/><path d="M165.3,85.5c-6,1-14.5,7.5-18,7-3-.42-9.5,9.5-13.33,10.72A73.63,73.63,0,0,1,104.8,98l3,4s17.21,8.6,28.25,1.5c3.75-2.5,7.68-9.58,12.25-10,5.5-.5,12-7,17-7,4.43,0,12.77.78,16,1.66C178.47,87.21,170.21,84.68,165.3,85.5Z"/><path d="M181.31,88.16l1,.34A5.83,5.83,0,0,0,181.31,88.16Z"/><path d="M275.8,92a4.38,4.38,0,0,1-3,1c-2,0-14-7-18-7,0,0,5-1,18,6C273.8,93,275.8,92,275.8,92Z"/><path class="cls-2" d="M253,33.43a19.39,19.39,0,0,1-4,8.39,29.39,29.39,0,0,0,7.53-8Z"/><path class="cls-2" d="M267.8,47s0,3-7,6c5.75-1,11.5-6,11.5-6Z"/><path class="cls-2" d="M220.8,20s5,5,4,16c1.42-5.65,0-17,0-17Z"/><path d="M13.4,168.6c-7.8,0-13.4,1.2-13.4-8.4,0-47,65.6-111.8,65.6-125.8,0-7-6.6-8.6-12.4-8.6-21,0-26,11.4-29.8,11.4C18.4,37.2,9.8,6,9.8,4c0-2.6,6.6-1.8,8-1.8h92c3.4,0,7.8,1.8,7.8,6.4,0,24-72.8,97-72.8,122.2,0,8.8,10.8,12.2,19.4,12.2,20.8,0,28.6-14.6,33-14.6,3.8,0,15.6,36.2,15.6,37.2,0,1.8-2.2,3-9,3Z"/><path d="M433.86,1.2c4,0,11.8,3.2,11.8,75.2,0,58.8-18,94.2-60.8,94.2-37.6,0-60.6-29-60.6-88.8,0-64,7.6-80.6,10.2-80.6h27.8c2,0,4.4,0,4.4,2.6,0,4.6-10,25.8-10,71.8,0,45.4,16.4,59.4,28.2,59.4,10,0,31.6-2.6,31.6-57.4,0-52-9.8-70.2-9.8-73.8,0-3.2,5.8-2.6,7.6-2.6Z"/></g></g></svg>