<svg xmlns="http://www.w3.org/2000/svg" viewBox="0 0 57.02 76"><defs><style>.cls-1,.cls-2{fill:none;stroke:#b30105;stroke-miterlimit:10;}.cls-1{stroke-width:2px;}.cls-2{stroke-width:4px;}.cls-3{fill:#b30105;}</style></defs><title>face_young</title><g id="Layer_2" data-name="Layer 2"><g id="Artboard_5" data-name="Artboard 5"><g id="avg_age_of_graduate" data-name="avg age of graduate"><g id="round_option" data-name="round option"><path class="cls-1" d="M31.29,17.68c-5.88,0-10.76,9.9-4.92,11s8.39-1.46,7.3-2.92S24,29.49,30.47,33.14"/><path class="cls-1" d="M22.41,48.85s4.42,2.19,6.42,2.23,6.47-2.23,6.47-2.23c4.15-.76,6.25.65,6.25,4.1v.31A12.76,12.76,0,0,1,28.83,66h0A12.76,12.76,0,0,1,16.11,53.26V53C16.11,49.5,18.54,48.09,22.41,48.85Z"/><ellipse class="cls-2" cx="28.83" cy="65.98" rx="5.02" ry="8.03"/><path class="cls-3" d="M28.88,20.51c10.42,0,22.18,3.39,27.16,9.39a72.11,72.11,0,0,0,1-9.39C57,9.18,44.25,0,28.51,0S0,9.18,0,20.51a88,88,0,0,0,.8,9.57C5.68,23.82,18.19,20.51,28.88,20.51Z"/></g></g></g></g></svg>