<svg xmlns="http://www.w3.org/2000/svg" viewBox="0 0 50.34 81.77"><defs><style>.cls-1,.cls-2{fill:none;stroke:#b30105;stroke-miterlimit:10;}.cls-1{stroke-width:2px;}.cls-3{fill:#b30105;}.cls-4{fill:#fff;}</style></defs><title>face_old</title><g id="Layer_2" data-name="Layer 2"><g id="Artboard_5" data-name="Artboard 5"><g id="avg_age_of_graduate" data-name="avg age of graduate"><g id="round_option" data-name="round option"><rect class="cls-1" x="1" y="1" width="21" height="15.93" rx="7.97" ry="7.97"/><rect class="cls-1" x="28.34" y="1" width="21" height="15.93" rx="7.97" ry="7.97"/><path class="cls-2" d="M22,7.38a13.09,13.09,0,0,1,6.46,0"/><path class="cls-3" d="M24,20.34c4.49-.16,19.08,4,17.53,8.23s.9,3.73,1.41,4.62,6.17,5.14,3.85,7.58-5.14,5.14-4.37,6.81,3.6,4.11,2.31,6.3-6,8.86-6.55,11.69,3,6,1.67,8-15.74,1.16-12.92,4.12,7,1.6,7,1.6-.35,5-7,.9C23.18,77.84,9,74.65,11.1,72.21s3.21-4.24,2.57-5.78-8-9.38-6.81-11.95,4.75-3.73,3.85-6.42-8.09-4.11-6.17-7.71S10.2,35.21,9.43,33s-3-4.24-1.67-5.65S16.94,20.6,24,20.34Z"/><path class="cls-4" d="M20.32,30.62c2.4-1.28,7.51.26,11.14.4C34.88,31.14,17.33,32.2,20.32,30.62Z"/></g></g></g></g></svg>