<svg xmlns="http://www.w3.org/2000/svg" viewBox="0 0 242.94 243.57"><defs><style>.cls-1{fill:#b30105;}</style></defs><title>logo_fanshawe</title><g id="Layer_2" data-name="Layer 2"><g id="Artboard_5" data-name="Artboard 5"><g id="Fanshawe_Logo_-_redraw" data-name="Fanshawe Logo - redraw"><g id="Fanshawe_Emblem" data-name="Fanshawe Emblem"><polygon id="F_top" data-name="F top" class="cls-1" points="90.28 113.13 168.83 34.56 168.83 0 120.92 47.18 74.68 1.51 74.59 36.15 102.82 64.46 90.26 77 43.13 29.91 43.13 66 90.28 113.13"/><polygon id="F_left" data-name="F left" class="cls-1" points="113.13 152.1 34.56 73.55 0 73.55 47.18 121.47 1.51 167.7 36.15 167.79 64.46 139.56 77 152.12 29.91 199.25 66 199.25 113.13 152.1"/><polygon id="F_bottom" data-name="F bottom" class="cls-1" points="150.95 130.44 72.4 209 72.4 243.57 120.31 196.38 166.55 242.06 166.64 207.41 138.41 179.1 150.97 166.56 198.1 213.66 198.1 177.56 150.95 130.44"/><polygon id="F_right" data-name="F right" class="cls-1" points="129.34 90.48 208.38 168.56 242.94 168.35 195.47 120.72 240.86 74.21 206.22 74.33 178.08 102.73 165.46 90.25 212.28 42.83 176.18 43.05 129.34 90.48"/></g></g></g></g></svg>