<svg xmlns="http://www.w3.org/2000/svg" viewBox="0 0 433.21 814.76"><defs><style>.cls-1{fill:#b30105;}</style></defs><title>male_profile</title><g id="Layer_2" data-name="Layer 2"><g id="Artboard_5" data-name="Artboard 5"><g id="New_Gender" data-name="New Gender"><g id="Profile"><path class="cls-1" d="M430.44,6c-5.62.49-11.22,1.17-16.82,2s-11.16,1.87-16.71,3q-16.65,3.44-33,8.27T331.69,30.13a292.71,292.71,0,0,0-31,13.79,134,134,0,0,0-14.35,8.6,56.41,56.41,0,0,0-6.26,5.11c-1.93,2-3.91,4-5.77,6.1-7.56,8.39-14.75,17.23-21.82,26.15s-14,18-20.72,27.17-13.4,18.44-19.51,27.92c-.77,1.18-1.45,2.37-2.18,3.56-.38.6-.68,1.18-1,1.75s-.59,1.1-.91,1.76a59.9,59.9,0,0,1-4.53,7.82c-3.23,4.85-6.61,9.42-9.66,14.12-1.53,2.34-3,4.71-4.23,7.12a36.15,36.15,0,0,0-3,7.29,17.37,17.37,0,0,0-.56,3.56v.85l.07.82a6,6,0,0,0,.14.79l.08.41.13.53c.73,2.82,1.35,5.67,1.91,8.53a121,121,0,0,1,2.19,17.43,59.67,59.67,0,0,1-.24,9c-.07.76-.22,1.54-.33,2.31s-.33,1.55-.52,2.36c-.15.45-.3.94-.47,1.34l-.5,1.13c-.35.7-.7,1.41-1.07,2.06a167.15,167.15,0,0,1-9.56,14.64q-5,7-10.33,13.83c-7.08,9.06-14.36,17.94-22.32,26.39-2,2.1-4,4.18-6.24,6.18L137.53,302c-.59.49-1.18,1-1.8,1.45-1.37,1-2.45,1.69-3.59,2.5a78.82,78.82,0,0,0-12.44,10.78,42.2,42.2,0,0,0-4.86,6.33,19.1,19.1,0,0,0-2.74,6.8,9.22,9.22,0,0,0,0,3.21c.1.53.32,1.22.46,1.83s.41,1.24.61,1.86a38.32,38.32,0,0,0,3.47,7.11A33.41,33.41,0,0,0,142.44,360l.75.08.61.41a17,17,0,0,1,5.9,6.79,23.81,23.81,0,0,1,2.18,8.25,57.85,57.85,0,0,1-1.16,15.76c-.47,2.51-1,5-1.5,7.39-.23,1.18-.46,2.39-.55,3.37,0,.27,0,.4,0,.65l0,.81c0,.54.07,1.08.16,1.61a17.39,17.39,0,0,0,2,6,10.53,10.53,0,0,0,3.95,4.16l2.32,1.25-.92,2.42c-.6,1.58-1.2,2.83-1.76,4.14s-1.09,2.57-1.53,3.84a22.44,22.44,0,0,0-1.54,7.39,8,8,0,0,0,.6,3,2.66,2.66,0,0,0,.33.62,4.89,4.89,0,0,0,.43.68l1.27,1.68c1.73,2.25,3.55,4.53,5.3,6.93a56,56,0,0,1,4.88,7.74,21.51,21.51,0,0,1,1.77,4.69l.26,1.34c.05.48.07,1,.09,1.46a7.11,7.11,0,0,1-.11,1.54l-.12.78c-.06.24-.13.47-.19.7a32.49,32.49,0,0,1-1.88,4.42c-.66,1.34-1.34,2.63-2,3.92-1.35,2.57-2.69,5.09-4,7.63s-2.47,5.08-3.5,7.65a47.15,47.15,0,0,0-2.49,7.72,15,15,0,0,0-.13,7.09l.11.37c0,.11.12.34.17.51l.37,1.08.67,2.12,1.25,4.13a78,78,0,0,0,6.23,15.42,40.93,40.93,0,0,0,10.23,12.33,37,37,0,0,0,6.75,4.27A45.62,45.62,0,0,0,185.2,547a55.71,55.71,0,0,0,8,1.46c2.82.33,5.77.6,8.63,1,11.53,1.39,23,3.2,34.36,5.07s22.75,3.84,34,5c2.81.26,5.62.46,8.35.46l2,0c.69,0,1.29-.12,1.94-.17l2.33-.24a8.11,8.11,0,0,1,3.34.47,7.43,7.43,0,0,1,2.94,2,9.9,9.9,0,0,1,1.66,2.64,18.54,18.54,0,0,1,1.26,5,53.43,53.43,0,0,1,.18,9.17c-.32,5.93-1.05,11.69-1.73,17.42s-1.37,11.41-1.75,17c-.19,2.82-.29,5.62-.24,8.38,0,1.38.1,2.74.24,4.08q.1,1,.25,2l.32,2.16c.88,5.81,1.44,11.66,1.73,17.51.6,11.7.07,23.23,1.15,34.44l.21,2.1a15.38,15.38,0,0,1,0,1.6c-.06.49-.1,1-.2,1.47a17.49,17.49,0,0,1-1.85,4.84,46.64,46.64,0,0,1-5.28,7.58,148.92,148.92,0,0,1-12.23,12.74c-8.5,8-17.38,15.43-26.3,22.79s-17.94,14.56-26.9,21.8-17.89,14.51-26.58,22c-4.34,3.75-8.61,7.55-12.73,11.48A111.19,111.19,0,0,0,171,802.55h0l-.77,1-1.07.17c-14,2.29-28,4-42,5.42S99.1,811.74,85,812.6s-28.12,1.53-42.2,1.82c-7,.23-14.07.24-21.11.33s-14.07-.05-21.11-.07a.63.63,0,0,1,0-1.27h0c7-.18,14-.26,21.07-.52s14-.49,21.05-.92c14-.68,28-1.77,42-3s27.93-2.82,41.84-4.64,27.81-3.91,41.47-6.54L166.23,799h0a116.49,116.49,0,0,1,12-13.07c4.23-4,8.57-7.9,13-11.69C200,766.62,209,759.33,218,752.07s18-14.46,26.86-21.77,17.68-14.71,26-22.52a143.34,143.34,0,0,0,11.72-12.2,41.07,41.07,0,0,0,4.61-6.58,11.78,11.78,0,0,0,1.26-3.2c.06-.24.05-.45.09-.67s0-.36,0-.56l-.22-2.2c-1.12-11.78-.58-23.37-1.17-34.7-.29-5.68-.83-11.31-1.67-16.91l-.32-2.12c-.12-.77-.22-1.55-.3-2.31-.15-1.53-.24-3.05-.27-4.55-.06-3,.05-6,.25-8.91.39-5.87,1.1-11.64,1.78-17.37s1.39-11.42,1.69-17a47.84,47.84,0,0,0-.14-8.11,12.84,12.84,0,0,0-.81-3.37,4,4,0,0,0-.62-1,1.4,1.4,0,0,0-.57-.41,2.13,2.13,0,0,0-.92-.11l-2,.21c-.79.07-1.61.2-2.37.2l-2.29,0c-3,0-6-.22-8.92-.49-11.68-1.17-23-3.19-34.43-5s-22.73-3.66-34.1-5c-2.86-.35-5.65-.6-8.56-.94a61.67,61.67,0,0,1-9-1.63A51.56,51.56,0,0,1,175,549.6a43,43,0,0,1-7.84-5,47,47,0,0,1-11.74-14.1A83.94,83.94,0,0,1,148.69,514l-1.26-4.15-.63-2-.33-1-.17-.51-.2-.67a20.71,20.71,0,0,1,0-10,53,53,0,0,1,2.79-8.73c1.12-2.78,2.39-5.45,3.69-8.08s2.67-5.19,4-7.73c.67-1.27,1.33-2.53,1.94-3.78a28,28,0,0,0,1.52-3.53c0-.11.07-.23.1-.34l0-.29a1.93,1.93,0,0,0,0-.61l0-.7-.16-.78a15.7,15.7,0,0,0-1.29-3.38,50.32,50.32,0,0,0-4.35-6.87c-1.65-2.27-3.43-4.49-5.21-6.81l-1.34-1.77a11.7,11.7,0,0,1-.74-1.14,7.6,7.6,0,0,1-.68-1.29,13.94,13.94,0,0,1-1.11-5.39,28.08,28.08,0,0,1,1.89-9.48c.51-1.45,1.09-2.84,1.67-4.2s1.21-2.7,1.63-3.82l1.4,3.67a16.45,16.45,0,0,1-6.34-6.51A23.35,23.35,0,0,1,142.9,406c-.11-.7-.16-1.41-.21-2.12l0-1.07c0-.37,0-.87,0-1.22a40,40,0,0,1,.64-4c.5-2.52,1-4.92,1.49-7.33a52.3,52.3,0,0,0,1.09-14.09,17.89,17.89,0,0,0-1.6-6.19,11,11,0,0,0-3.82-4.41l1.36.48a39.41,39.41,0,0,1-30.27-18.9,44.31,44.31,0,0,1-4-8.26c-.24-.74-.5-1.46-.72-2.21s-.41-1.45-.59-2.33a15.23,15.23,0,0,1-.08-5.31,24.93,24.93,0,0,1,3.55-9,48.14,48.14,0,0,1,5.55-7.24,84.73,84.73,0,0,1,13.4-11.63c1.18-.84,2.51-1.7,3.44-2.4.51-.39,1-.82,1.54-1.24l1.53-1.34c2-1.84,4-3.85,5.93-5.87,7.72-8.19,14.95-17,21.93-25.93q5.23-6.72,10.18-13.63a162.56,162.56,0,0,0,9.18-14c.34-.59.61-1.17.9-1.74l.37-.82c.11-.26.15-.45.24-.68.13-.58.29-1.2.4-1.82s.22-1.27.28-1.93a53.87,53.87,0,0,0,.21-8.09A115.08,115.08,0,0,0,182.71,205c-.53-2.75-1.14-5.48-1.84-8.19l-.13-.51-.14-.64a11.38,11.38,0,0,1-.23-1.32c0-.44-.09-.88-.12-1.31v-1.29a23.31,23.31,0,0,1,.75-4.89,41.92,41.92,0,0,1,3.46-8.55c1.39-2.65,2.92-5.17,4.51-7.61,3.18-4.88,6.59-9.51,9.69-14.16a54.66,54.66,0,0,0,4.07-7l1.05-2c.36-.7.72-1.39,1.11-2,.77-1.25,1.51-2.54,2.29-3.75,6.28-9.73,13-19,19.75-28.26s13.74-18.34,20.85-27.33,14.35-17.88,22.09-26.47c1.9-2.17,4-4.23,6-6.34a62.1,62.1,0,0,1,7-5.73,139.83,139.83,0,0,1,15-9,298.53,298.53,0,0,1,31.61-14.08q16.12-6.19,32.69-11t33.48-8.39c5.65-1.14,11.32-2.17,17-3S424.18.51,429.95,0a3,3,0,0,1,.52,6Z"/></g></g></g></g></svg>