<svg xmlns="http://www.w3.org/2000/svg" viewBox="0 0 409.22 813.22"><defs><style>.cls-1{fill:#b30105;}</style></defs><title>profile_f</title><g id="Layer_2" data-name="Layer 2"><g id="Artboard_5" data-name="Artboard 5"><g id="New_Gender" data-name="New Gender"><g id="Profile"><path class="cls-1" d="M3.1,0A385.51,385.51,0,0,1,82.47,10.82a322.32,322.32,0,0,1,38.3,12.05c12.53,4.78,24.63,10.65,36.49,16.57a312,312,0,0,1,34.87,19.94,191.45,191.45,0,0,1,31,25.78c2.28,2.48,4.59,4.94,6.84,7.45l6.43,7.81,6,8.17c1.91,2.77,3.67,5.65,5.52,8.47.45.71.92,1.41,1.35,2.13l1.24,2.2,2.48,4.4c.81,1.48,1.69,2.91,2.44,4.42l2.25,4.53c1.56,3,2.86,6.1,4.21,9.19s2.51,6.25,3.73,9.39a199.48,199.48,0,0,1,10,39.07,189.07,189.07,0,0,1,2,20.13,104.14,104.14,0,0,1-.9,20.51c-1.23,6.6-2.64,13.11-4.18,19.61-.77,3.25-1.58,6.5-2.45,9.74s-1.79,6.47-2.95,9.76l-.45,1.24-.53,1.27a12.5,12.5,0,0,1-.65,1.35l-.36.68-.26.46a36.87,36.87,0,0,0-1.95,4.15,78.71,78.71,0,0,0-3,9.08,84.37,84.37,0,0,0-3,18.93c-.09,3.13,0,6.44.21,9.66a54.41,54.41,0,0,0,1.28,9.32c1.48,5.92,4.49,11.87,7.14,18s5.28,12.33,7.6,18.58c1.17,3.12,2.3,6.23,3.49,9.26.61,1.5,1.22,3,1.88,4.46.32.73.68,1.47,1,2.16a21.3,21.3,0,0,0,1.07,1.86,69.7,69.7,0,0,0,6,7.41,39.44,39.44,0,0,1,6.13,8.81,19.87,19.87,0,0,1,1,2.69l.42,1.4.25,1.45a19.79,19.79,0,0,1,0,5.82,17.77,17.77,0,0,1-1.7,5.65,23.1,23.1,0,0,1-3.14,4.76,34.37,34.37,0,0,1-8.32,7,50.67,50.67,0,0,1-9.55,4.52,57.12,57.12,0,0,1-20.64,3.32l2.93-2c-1.67,4.76-1,10.37.71,15.74a79.32,79.32,0,0,0,3.07,8.08l1.79,4.15c.3.72.6,1.46.88,2.28.14.42.28.86.4,1.38.06.25.11.59.16.88s0,.4,0,.59v.44a34.5,34.5,0,0,1-.41,4.84,24.61,24.61,0,0,1-1.41,4.93,28.29,28.29,0,0,1-5.44,8.37,54.9,54.9,0,0,1-15.38,11l.15-5.27a23.61,23.61,0,0,1,5.3,4.21,18.83,18.83,0,0,1,3.71,5.86,21.81,21.81,0,0,1,.64,13.41,27.3,27.3,0,0,1-6.19,11.56,20.63,20.63,0,0,1-5.35,4.28,14.17,14.17,0,0,1-7.2,1.79l1.77-.48c-1.88,1.22-3.72,2.47-5.47,3.79a38.06,38.06,0,0,0-4.79,4.17,12.64,12.64,0,0,0-1.66,2.17,5.21,5.21,0,0,0-.43.95,5.06,5.06,0,0,0-.12,1c-.09,2.17-.19,4.63-.42,7a59.83,59.83,0,0,1-3.07,14.13,45.06,45.06,0,0,1-7,12.86l-1.15,1.45c-.4.47-.85.9-1.27,1.35a29.59,29.59,0,0,1-2.64,2.59c-.94.79-1.88,1.6-2.83,2.37s-1.89,1.43-2.9,2.09a46.82,46.82,0,0,1-6.34,3.72A34.44,34.44,0,0,1,184,593.5a40.19,40.19,0,0,1-14.82-.11,91.16,91.16,0,0,1-13.71-3.75c-8.79-3.08-17.3-6.55-25.81-10.07s-16.94-7.17-25.35-10.87c-16.82-7.42-33.53-15-50.19-22.85l1.73.27a11.45,11.45,0,0,0-3.39,1.21,22.41,22.41,0,0,0-3.36,2.28A46.4,46.4,0,0,0,43,555.85,105.73,105.73,0,0,0,33,570.9q-2.23,4-4.2,8.09a79.08,79.08,0,0,0-3.5,8.24.53.53,0,0,0,0,.19l0,.13a2,2,0,0,1-.06.25l-.08,1c-.06.63,0,1.42-.07,2.13,0,1.48,0,3,.12,4.51.13,3,.36,6.1.61,9.17,1.05,12.27,2.61,24.56,4.38,36.79S34,665.8,36.39,677.93s5.07,24.19,8.4,36c1.67,5.91,3.5,11.77,5.68,17.44l1.71,4.2c.63,1.36,1.23,2.73,1.9,4.08l2.14,4c.72,1.33,1.39,2.68,2.23,3.95,1.63,2.55,3.13,5.18,5,7.6l2.64,3.7,2.85,3.55c1.84,2.42,4,4.61,6,6.9,1,1.13,2.11,2.19,3.17,3.28s2.11,2.19,3.24,3.21L84.6,779,88,782c1.13,1,2.34,2,3.52,2.92l1.78,1.44,1.82,1.38c1.21.92,2.42,1.85,3.67,2.72s2.48,1.77,3.75,2.61c2.5,1.7,5.13,3.35,7.65,4.77h0l-1.08-.34c24.74,2.78,49.69,4.78,74.59,6.55s49.88,3.1,74.85,4.23c12.49.48,25,1,37.47,1.39l18.74.57,18.74.43,9.37.21,9.37.13,18.75.26c12.5.13,25,.13,37.5.21h0a.66.66,0,0,1,0,1.33c-12.51.12-25,.31-37.52.38l-18.76,0-9.38,0-9.38-.07L314.76,813,296,812.74c-12.51-.15-25-.53-37.52-.81-25-.74-50-1.72-75-3.07s-50-3-75-5.41l-.57-.05-.52-.28h0c-2.89-1.62-5.51-3.28-8.15-5.07-1.32-.87-2.61-1.79-3.9-2.71s-2.55-1.87-3.81-2.82l-1.89-1.44-1.84-1.49c-1.22-1-2.47-2-3.65-3l-3.57-3.11-3.45-3.25c-1.17-1.06-2.27-2.21-3.37-3.34s-2.23-2.24-3.29-3.42c-2.08-2.39-4.28-4.67-6.21-7.19l-3-3.71-2.77-3.87c-1.91-2.53-3.51-5.29-5.21-8-.88-1.32-1.59-2.75-2.35-4.15l-2.25-4.21c-.71-1.43-1.36-2.91-2-4.36l-1.8-4.42c-2.28-5.92-4.15-11.93-5.85-18-3.4-12.07-6.11-24.26-8.52-36.49S26,654.55,24.24,642.23s-3.35-24.69-4.42-37.15c-.26-3.12-.49-6.24-.63-9.41-.08-1.58-.11-3.18-.12-4.8,0-.85,0-1.61.08-2.53l.12-1.36.18-.89.1-.44a3.43,3.43,0,0,1,.1-.37,84.6,84.6,0,0,1,3.77-8.89q2.06-4.29,4.38-8.43A111.47,111.47,0,0,1,38.39,552,52.18,52.18,0,0,1,45.3,545,28.31,28.31,0,0,1,49.63,542,17.3,17.3,0,0,1,55,540.18l.88-.14.85.4c16.51,7.82,33.25,15.38,50,22.76Q119.3,568.73,132,574c8.44,3.5,16.94,7,25.46,9.94a85.45,85.45,0,0,0,12.81,3.52,34.27,34.27,0,0,0,12.54.14,28.46,28.46,0,0,0,5.82-2,40.9,40.9,0,0,0,5.51-3.25c.91-.59,1.79-1.29,2.68-1.93l2.44-2.05a24.2,24.2,0,0,0,2.27-2.22c.36-.39.75-.75,1.09-1.15l1-1.25a39.06,39.06,0,0,0,6.11-11.16,53.82,53.82,0,0,0,2.75-12.69c.21-2.21.29-4.34.4-6.75a10.5,10.5,0,0,1,.37-2.39,11.07,11.07,0,0,1,1-2.19,18.44,18.44,0,0,1,2.49-3.3,43.7,43.7,0,0,1,5.56-4.87c1.91-1.44,3.86-2.77,5.83-4l.78-.5,1,0a8.22,8.22,0,0,0,4.06-1.07,14.71,14.71,0,0,0,3.78-3.05,21.35,21.35,0,0,0,4.8-9,15.84,15.84,0,0,0-.4-9.72,14.67,14.67,0,0,0-6.44-7.1l-4.74-2.81,4.89-2.47A49.12,49.12,0,0,0,249.44,481a22.31,22.31,0,0,0,4.31-6.57,18.55,18.55,0,0,0,1-3.68,28.84,28.84,0,0,0,.33-4.09,3.84,3.84,0,0,0-.27-1.08c-.21-.6-.46-1.24-.74-1.9l-1.77-4.09a85.14,85.14,0,0,1-3.29-8.68,41.57,41.57,0,0,1-1.87-9.46,25.25,25.25,0,0,1,1.23-10l.71-2.07,2.21.07a51.17,51.17,0,0,0,18.44-3,44.7,44.7,0,0,0,8.41-4,28.45,28.45,0,0,0,6.88-5.74,13.82,13.82,0,0,0,2.24-15.36,33.91,33.91,0,0,0-5.24-7.44,74,74,0,0,1-6.48-8.09,27.39,27.39,0,0,1-1.4-2.45c-.39-.8-.74-1.55-1.1-2.34-.71-1.56-1.35-3.14-2-4.71-1.24-3.15-2.37-6.28-3.53-9.37-2.3-6.18-4.78-12.23-7.47-18.25-1.34-3-2.71-6-4-9.14a64.84,64.84,0,0,1-3.44-9.85,60.27,60.27,0,0,1-1.44-10.37c-.2-3.4-.32-6.73-.22-10.24a90.31,90.31,0,0,1,3.17-20.31,84.6,84.6,0,0,1,3.28-9.78,42.43,42.43,0,0,1,2.29-4.85l.36-.62.22-.42a7.19,7.19,0,0,0,.42-.89l.43-1,.4-1.1c1.05-3,1.95-6.14,2.8-9.29s1.65-6.36,2.41-9.56c1.52-6.41,2.91-12.87,4.12-19.32a74,74,0,0,0,.86-9.45c0-1.62.06-3.24.05-4.86l-.11-4.88a182.93,182.93,0,0,0-1.91-19.47,193.49,193.49,0,0,0-9.74-37.9c-1.19-3-2.25-6.14-3.62-9.1s-2.57-6-4.08-8.9L250.12,133c-.72-1.46-1.58-2.86-2.37-4.29l-2.41-4.27-1.2-2.14c-.42-.7-.88-1.38-1.31-2.07-1.79-2.73-3.49-5.52-5.35-8.21l-5.77-7.91-6.22-7.56c-2.18-2.43-4.42-4.8-6.62-7.21a185.46,185.46,0,0,0-30.1-25,306.08,306.08,0,0,0-34.2-19.55c-11.87-5.94-23.68-11.65-36-16.34A316.34,316.34,0,0,0,81,16.64,379.53,379.53,0,0,0,2.9,6,3,3,0,0,1,3.1,0Z"/></g></g></g></g></svg>