<svg xmlns="http://www.w3.org/2000/svg" viewBox="0 0 59.86 164.34"><defs><style>.cls-1{fill:none;stroke:#b30105;stroke-miterlimit:10;stroke-width:2px;}</style></defs><title>profile_female</title><g id="Layer_2" data-name="Layer 2"><g id="Artboard_5" data-name="Artboard 5"><g id="Gender_" data-name="Gender %"><path id="Profile" class="cls-1" d="M21.59,163.46s-7.82-4.2-11.74-12.19C6.08,143.59,3.42,121.44,4,119.85s3.76-8.38,6.71-8.81C13,112.14,25,117.68,31,119.82c4.68,1.68,6.54,1.12,8.95-.71,3.78-2.86,3.38-7.59,3.5-8.25s.93-1.52,2.8-2.72c2.53.12,5.21-5.1,1.52-7.24,4.4-2.22,4.24-4.63,4.28-5.45s-2.37-4.22-1.4-7c3.66.12,7.77-1.87,8.2-4.51s-2.09-3.91-3-5.77-1.24-3.39-2.76-6.82-1.83-3.82-1.91-7.21a16.87,16.87,0,0,1,1.77-7.74c.62-1,1.78-6,2.28-8.72.43-2.35.55-11.35-4.36-20.67C44.7,15.39,35.62,11.13,28.61,7.7,17.71,2.36,6.73,1.23,0,1"/></g></g></g></svg>