<svg xmlns="http://www.w3.org/2000/svg" viewBox="0 0 97.29 153.53"><defs><style>.cls-1{fill:none;stroke:#b30105;stroke-miterlimit:10;stroke-width:2px;}</style></defs><title>profile_male</title><g id="Layer_2" data-name="Layer 2"><g id="Artboard_5" data-name="Artboard 5"><g id="Gender_" data-name="Gender %"><path id="Profile" class="cls-1" d="M96.95,5.22C85.87,1.17,69.3,0,64.09,1.88c-5.47,2-19.63,9.69-21.61,11.43S35,17,34.53,19.77s-1.49,6-2.73,7.45-12.67,7.45-15.9,7.95S9.21,37,8.77,39.11a7.72,7.72,0,0,0,3.62,8.22c1.7,2.75-2.22,6.47-2.77,7.68a3.6,3.6,0,0,0,.11,3.51c-.66.66-2.85,2.2-2.52,3.85s1.23,4.49.35,5.58S1.64,71.9,1.42,74.42-.66,83.08,5.7,86.81s17.22,11.51,18.53,14.48-1.43,12.61.22,16.89,5.59,11.51,5.92,15.24-6.47,17-9.65,19.3"/></g></g></g></svg>